<svg fill="#000000" xmlns="http://www.w3.org/2000/svg" xmlns:xlink="http://www.w3.org/1999/xlink" version="1.1" x="0px" y="0px" viewBox="0 0 32 32" enable-background="new 0 0 32 32" xml:space="preserve"><g display="none"><rect x="-177.667" y="-107.021" display="inline" fill="#000000" width="542" height="232"/></g><g display="none"><g display="inline"><path d="M27.496,18.767L16,6.613L4.504,18.767L16,25.387L27.496,18.767z M16.5,23.945V8.597l9.398,9.936L16.5,23.945z M15.5,8.597    v15.348l-9.398-5.412L15.5,8.597z"/><path d="M16,32c8.837,0,16-7.163,16-16S24.837,0,16,0S0,7.163,0,16S7.163,32,16,32z M16,1c8.271,0,15,6.729,15,15    c0,8.271-6.729,15-15,15C7.729,31,1,24.271,1,16C1,7.729,7.729,1,16,1z"/></g></g><g display="none"><g display="inline"><path d="M28.295,18.884L16,5.885L3.705,18.884L16,25.965L28.295,18.884z M17,23.08V9.853l8.1,8.563L17,23.08z M15,9.853V23.08    l-8.1-4.664L15,9.853z"/><path d="M16,32c8.837,0,16-7.163,16-16S24.837,0,16,0S0,7.163,0,16S7.163,32,16,32z M16,2c7.72,0,14,6.28,14,14    c0,7.72-6.28,14-14,14C8.28,30,2,23.72,2,16C2,8.28,8.28,2,16,2z"/></g></g><g><g><polygon points="16.5,8.597 16.5,23.945 25.898,18.533   "/><polygon points="15.5,23.945 15.5,8.597 6.102,18.533   "/><path d="M16,32c8.837,0,16-7.163,16-16S24.837,0,16,0S0,7.163,0,16S7.163,32,16,32z M16,6.613l11.496,12.154L16,25.387    l-11.496-6.62L16,6.613z"/></g></g><g display="none"><g display="inline"><polygon fill="#000000" stroke="#000000" stroke-width="0.5" stroke-miterlimit="10" points="16,7.341 5.302,18.65 16,24.81     26.698,18.65   "/></g><line display="inline" fill="#000000" stroke="#000000" stroke-width="0.5" stroke-miterlimit="10" x1="16" y1="7.669" x2="16" y2="24.517"/><g display="inline"><path fill="#000000" d="M16,0.5c8.547,0,15.5,6.953,15.5,15.5S24.547,31.5,16,31.5S0.5,24.547,0.5,16S7.453,0.5,16,0.5 M16,0    C7.163,0,0,7.163,0,16s7.163,16,16,16s16-7.163,16-16S24.837,0,16,0L16,0z"/></g></g><g display="none"><polygon display="inline" points="0,19.938 16,29.358 32,19.938 16,2.642  "/></g></svg>